HIERARCHY
ROOT Hips
{
	OFFSET 0.000000 35.069874 -0.029489
	CHANNELS 6 Xposition Yposition Zposition Xrotation Yrotation Zrotation 
	JOINT Spine
	{
		OFFSET 0.000000 6.876060 0.125662
		CHANNELS 3 Xrotation Yrotation Zrotation
		JOINT Spine1
		{
			OFFSET 0.000000 5.730046 0.104717
			CHANNELS 3 Xrotation Yrotation Zrotation
			JOINT Spine1_split
			{
				OFFSET 0.000000 5.730046 0.104717
				CHANNELS 3 Xrotation Yrotation Zrotation
				JOINT Spine2
				{
					OFFSET 0.000000 5.730046 0.104717
					CHANNELS 3 Xrotation Yrotation Zrotation
					JOINT Neck
					{
						OFFSET 0.000000 10.314075 0.188489
						CHANNELS 3 Xrotation Yrotation Zrotation
						JOINT Head
						{
							OFFSET 0.000000 7.643753 -2.377445
							CHANNELS 3 Xrotation Yrotation Zrotation
							JOINT HeadTop_End
							{
								OFFSET 0.000000 43.788605 -13.619637
								CHANNELS 3 Xrotation Yrotation Zrotation
								End Site
								{
									OFFSET 0.000000 0.000000 0.000000
								}
							}
						}
					}
					JOINT LeftShoulder
					{
						OFFSET 2.196093 4.412501 0.087498
						CHANNELS 3 Xrotation Yrotation Zrotation
						JOINT LeftShoulder_split
						{
							OFFSET 2.196093 4.412501 0.087498
							CHANNELS 3 Xrotation Yrotation Zrotation
							JOINT LeftArm
							{
								OFFSET 8.774866 -2.970879 -0.026997
								CHANNELS 3 Xrotation Yrotation Zrotation
								JOINT LeftForeArm
								{
									OFFSET 8.450586 -0.797432 -0.648343
									CHANNELS 3 Xrotation Yrotation Zrotation
									JOINT LeftHand
									{
										OFFSET 18.458662 0.962311 0.193148
										CHANNELS 3 Xrotation Yrotation Zrotation
										JOINT LeftHandThumb1
										{
											OFFSET 2.379990 -1.333382 2.680594
											CHANNELS 3 Xrotation Yrotation Zrotation
											JOINT LeftHandThumb2
											{
												OFFSET 1.903984 -1.066746 2.144473
												CHANNELS 3 Xrotation Yrotation Zrotation
												JOINT LeftHandThumb3
												{
													OFFSET 0.966393 -1.489639 2.964555
													CHANNELS 3 Xrotation Yrotation Zrotation
													JOINT LeftHandThumb4
													{
														OFFSET 1.205181 -0.823021 1.625701
														CHANNELS 3 Xrotation Yrotation Zrotation
														End Site
														{
															OFFSET 0.000000 0.000000 0.000000
														}
													}
												}
											}
										}
										JOINT LeftHandIndex1
										{
											OFFSET 7.830624 -0.787468 2.563931
											CHANNELS 3 Xrotation Yrotation Zrotation
											JOINT LeftHandIndex2
											{
												OFFSET 3.312897 -0.052605 1.515312
												CHANNELS 3 Xrotation Yrotation Zrotation
												JOINT LeftHandIndex3
												{
													OFFSET 3.460667 -0.207008 1.581951
													CHANNELS 3 Xrotation Yrotation Zrotation
													JOINT LeftHandIndex4
													{
														OFFSET 2.183182 0.110458 0.999585
														CHANNELS 3 Xrotation Yrotation Zrotation
														End Site
														{
															OFFSET 0.000000 0.000000 0.000000
														}
													}
												}
											}
										}
										JOINT LeftHandMiddle1
										{
											OFFSET 8.556145 -0.261200 0.258753
											CHANNELS 3 Xrotation Yrotation Zrotation
											JOINT LeftHandMiddle2
											{
												OFFSET 3.828903 -0.489014 -0.111505
												CHANNELS 3 Xrotation Yrotation Zrotation
												JOINT LeftHandMiddle3
												{
													OFFSET 3.696209 -0.166595 -0.107596
													CHANNELS 3 Xrotation Yrotation Zrotation
													JOINT LeftHandMiddle4
													{
														OFFSET 2.259281 0.534500 -0.065675
														CHANNELS 3 Xrotation Yrotation Zrotation
														End Site
														{
															OFFSET 0.000000 0.000000 0.000000
														}
													}
												}
											}
										}
										JOINT LeftHandRing1
										{
											OFFSET 8.509293 -0.556679 -3.044941
											CHANNELS 3 Xrotation Yrotation Zrotation
											JOINT LeftHandRing2
											{
												OFFSET 2.995171 -0.303261 -0.843591
												CHANNELS 3 Xrotation Yrotation Zrotation
												JOINT LeftHandRing3
												{
													OFFSET 2.968273 -0.101997 -0.834287
													CHANNELS 3 Xrotation Yrotation Zrotation
													JOINT LeftHandRing4
													{
														OFFSET 1.521358 -0.461468 -0.418735
														CHANNELS 3 Xrotation Yrotation Zrotation
														End Site
														{
															OFFSET 0.000000 0.000000 0.000000
														}
													}
												}
											}
										}
									}
								}
							}
						}
					}
					JOINT RightShoulder
					{
						OFFSET -2.196075 4.412512 0.070694
						CHANNELS 3 Xrotation Yrotation Zrotation
						JOINT RightShoulder_split
						{
							OFFSET -2.196075 4.412512 0.070694
							CHANNELS 3 Xrotation Yrotation Zrotation
							JOINT RightArm
							{
								OFFSET -8.774886 -2.970947 -0.094209
								CHANNELS 3 Xrotation Yrotation Zrotation
								JOINT RightForeArm
								{
									OFFSET -8.450586 -0.797386 -0.330665
									CHANNELS 3 Xrotation Yrotation Zrotation
									JOINT RightHand
									{
										OFFSET -18.458664 0.962341 0.025780
										CHANNELS 3 Xrotation Yrotation Zrotation
										JOINT RightHandThumb1
										{
											OFFSET -2.390282 -1.240040 2.604684
											CHANNELS 3 Xrotation Yrotation Zrotation
											JOINT RightHandThumb2
											{
												OFFSET -1.912228 -0.992111 2.083740
												CHANNELS 3 Xrotation Yrotation Zrotation
												JOINT RightHandThumb3
												{
													OFFSET -0.876358 -1.555370 2.930126
													CHANNELS 3 Xrotation Yrotation Zrotation
													JOINT RightHandThumb4
													{
														OFFSET -1.227077 -0.755932 1.835223
														CHANNELS 3 Xrotation Yrotation Zrotation
														End Site
														{
															OFFSET 0.000000 0.000000 0.000000
														}
													}
												}
											}
										}
										JOINT RightHandIndex1
										{
											OFFSET -8.716801 -0.633743 3.098187
											CHANNELS 3 Xrotation Yrotation Zrotation
											JOINT RightHandIndex2
											{
												OFFSET -3.319706 -0.240585 1.198087
												CHANNELS 3 Xrotation Yrotation Zrotation
												JOINT RightHandIndex3
												{
													OFFSET -3.153255 -0.154724 1.138827
													CHANNELS 3 Xrotation Yrotation Zrotation
													JOINT RightHandIndex4
													{
														OFFSET -1.818684 -0.003197 0.655154
														CHANNELS 3 Xrotation Yrotation Zrotation
														End Site
														{
															OFFSET 0.000000 0.000000 0.000000
														}
													}
												}
											}
										}
										JOINT RightHandMiddle1
										{
											OFFSET -8.158691 -0.528496 0.196552
											CHANNELS 3 Xrotation Yrotation Zrotation
											JOINT RightHandMiddle2
											{
												OFFSET -3.890194 -0.261169 -0.136423
												CHANNELS 3 Xrotation Yrotation Zrotation
												JOINT RightHandMiddle3
												{
													OFFSET -3.903057 -0.179909 -0.137173
													CHANNELS 3 Xrotation Yrotation Zrotation
													JOINT RightHandMiddle4
													{
														OFFSET -2.366261 0.198380 -0.083987
														CHANNELS 3 Xrotation Yrotation Zrotation
														End Site
														{
															OFFSET 0.000000 0.000000 0.000000
														}
													}
												}
											}
										}
										JOINT RightHandRing1
										{
											OFFSET -7.616104 -0.395126 -2.681268
											CHANNELS 3 Xrotation Yrotation Zrotation
											JOINT RightHandRing2
											{
												OFFSET -3.235790 -0.462120 -1.101476
												CHANNELS 3 Xrotation Yrotation Zrotation
												JOINT RightHandRing3
												{
													OFFSET -3.179264 -0.138618 -1.084847
													CHANNELS 3 Xrotation Yrotation Zrotation
													JOINT RightHandRing4
													{
														OFFSET -1.963291 -0.101624 -0.668250
														CHANNELS 3 Xrotation Yrotation Zrotation
														End Site
														{
															OFFSET 0.000000 0.000000 0.000000
														}
													}
												}
											}
										}
									}
								}
							}
						}
					}
				}
			}
		}
	}
	JOINT LeftUpLeg
	{
		OFFSET 10.205382 -3.823519 0.155145
		CHANNELS 3 Xrotation Yrotation Zrotation
		JOINT LeftLeg
		{
			OFFSET 0.283732 -12.998343 0.567794
			CHANNELS 3 Xrotation Yrotation Zrotation
			JOINT LeftFoot
			{
				OFFSET -1.058953 -10.688869 -2.184322
				CHANNELS 3 Xrotation Yrotation Zrotation
				JOINT LeftToeBase
				{
					OFFSET 0.108145 -7.191069 7.560211
					CHANNELS 3 Xrotation Yrotation Zrotation
					JOINT LeftToe_End
					{
						OFFSET 0.070226 0.081726 4.490266
						CHANNELS 3 Xrotation Yrotation Zrotation
						End Site
						{
							OFFSET 0.000000 0.000000 0.000000
						}
					}
				}
			}
		}
	}
	JOINT RightUpLeg
	{
		OFFSET -10.205383 -3.823513 0.005508
		CHANNELS 3 Xrotation Yrotation Zrotation
		JOINT RightLeg
		{
			OFFSET -0.283728 -12.998341 0.610627
			CHANNELS 3 Xrotation Yrotation Zrotation
			JOINT RightFoot
			{
				OFFSET 1.058956 -10.688892 -1.945833
				CHANNELS 3 Xrotation Yrotation Zrotation
				JOINT RightToeBase
				{
					OFFSET -0.108150 -7.191040 7.372945
					CHANNELS 3 Xrotation Yrotation Zrotation
					JOINT RightToe_End
					{
						OFFSET -0.070229 0.081738 4.479398
						CHANNELS 3 Xrotation Yrotation Zrotation
						End Site
						{
							OFFSET 0.000000 0.000000 0.000000
						}
					}
				}
			}
		}
	}
}
MOTION
Frames: 6
Frame Time: 0.016667
0.690105 30.362181 -0.864320 -6.074718 -42.881481 -3.766060 5.854769 4.464501 -1.468120 11.839518 9.031692 -3.079609 0.000000 0.000000 0.000000 11.839514 9.031715 -3.079613 -4.303136 -1.284325 0.197019 -6.271519 20.437789 -0.378349 -0.000000 -0.000000 -0.000000 1.386289 -0.696154 -7.951343 0.000000 0.000000 0.000000 -18.062556 0.209337 -57.740978 3.803086 -43.214767 -5.480285 13.490907 1.961235 23.616359 22.097178 17.358871 -9.992765 -2.785637 19.837557 11.167463 -1.210717 -15.365550 -7.913957 -0.000001 -0.000001 0.000006 1.538444 15.902526 -5.099471 5.934996 0.600842 -12.872752 2.389648 -0.072724 -5.225860 0.000003 -0.000001 -0.000001 1.755980 6.854020 -8.526116 -1.080831 -0.428341 -26.607588 -0.455813 0.066365 -15.878037 0.000000 0.000000 0.000001 -4.671811 0.676294 -25.776977 -9.281033 1.910897 -34.390559 3.833918 0.767650 13.845962 -0.000001 -0.000004 0.000000 1.402699 9.461292 9.861715 0.000000 0.000000 0.000000 -0.861449 -23.061820 54.244570 -10.935170 38.734624 17.583656 5.433202 10.440678 5.233558 4.281841 -17.657128 7.069577 0.439430 -40.985199 -17.100222 3.562219 14.748197 8.652808 -0.000001 -0.000004 0.000001 1.800986 -19.634719 4.585404 6.294584 -0.304057 17.124416 0.862186 0.064296 2.396429 0.000001 -0.000003 0.000000 -1.069910 -0.010006 12.514038 -1.534611 0.566268 31.794049 -0.262374 0.003300 7.422938 -0.000000 0.000000 -0.000004 -4.438484 10.652687 17.471798 -13.179925 -3.133611 40.470104 0.144674 -0.044672 -0.418784 -0.000001 -0.000004 0.000001 -38.752922 0.674136 19.825667 40.866545 -16.410242 0.072956 -0.063946 1.087112 -14.920410 -2.318970 -3.208531 0.802967 -0.000000 -0.000001 -0.000000 7.904463 -14.585244 -22.574836 34.999733 -3.374037 0.186239 -32.111581 -11.394458 25.482133 -1.786710 -0.361838 0.339086 0.000000 0.000003 0.000000 
0.714479 30.378073 -0.855877 -5.598247 -42.907740 -3.594152 5.837309 4.346681 -1.476577 11.799046 8.799388 -3.072771 0.000000 0.000000 0.000000 11.799044 8.799402 -3.072777 -4.422127 -1.092336 0.277849 -5.829505 20.627347 -0.313117 -0.000000 -0.000000 0.000000 1.383101 -0.397817 -7.996413 0.000000 0.000000 0.000000 -17.813492 0.515384 -57.214760 3.718278 -43.872323 -5.472455 13.350983 2.019283 23.123057 21.759451 17.172506 -9.918391 -2.778266 19.885604 11.181492 -1.210717 -15.365547 -7.913960 -0.000002 -0.000003 -0.000002 1.573213 15.951985 -5.218148 5.955548 0.590938 -12.922485 2.389646 -0.072722 -5.225860 -0.000001 0.000001 0.000001 1.720036 6.723153 -8.545928 -1.074786 -0.423129 -26.494191 -0.455819 0.066364 -15.878038 0.000003 0.000002 0.000002 -4.692270 0.562653 -25.639109 -9.230009 1.877415 -34.181251 3.833914 0.767648 13.845958 0.000002 -0.000001 0.000002 1.380361 9.243852 9.938594 0.000000 0.000000 0.000000 -1.281068 -22.033297 53.347766 -10.316052 38.779639 18.000605 4.907794 10.382952 4.832871 4.156299 -17.489345 6.962266 0.365032 -40.754257 -17.078958 3.562216 14.748204 8.652809 0.000002 -0.000004 0.000001 1.808201 -19.560868 4.672621 6.303041 -0.298595 17.151619 0.862185 0.064294 2.396428 -0.000001 -0.000003 0.000000 -1.079752 0.020186 12.538911 -1.520838 0.558092 31.538241 -0.262373 0.003297 7.422940 0.000001 -0.000001 -0.000000 -4.421643 10.643023 17.433996 -13.094384 -3.072110 40.175876 0.144672 -0.044673 -0.418780 -0.000001 -0.000001 0.000001 -39.146034 0.363889 19.816990 40.942521 -16.204094 0.121124 -0.026770 1.106889 -14.991695 -2.317210 -3.185303 0.758585 -0.000000 -0.000001 -0.000000 7.691291 -14.337443 -22.313963 34.748963 -3.704015 0.180238 -31.832807 -11.370119 25.545893 -1.690447 -0.303085 0.336900 0.000000 0.000000 0.000000 
0.789120 30.334175 -0.862905 -4.779253 -43.003469 -3.093761 5.858496 4.137277 -1.461729 11.833211 8.390649 -3.031217 0.000000 0.000000 0.000000 11.833214 8.390646 -3.031216 -4.921764 -0.745160 0.377359 -5.471399 20.932038 -0.687780 0.000001 -0.000000 -0.000000 1.353763 -0.084336 -8.184280 0.000000 0.000000 0.000000 -17.477303 1.204307 -56.439311 3.212415 -45.457146 -4.969822 13.098486 2.212173 22.255109 20.941842 16.629398 -9.842126 -2.769504 19.973886 11.210286 -1.210723 -15.365554 -7.913963 -0.000002 -0.000004 0.000001 1.653707 16.048522 -5.522101 6.013170 0.563134 -13.062018 2.389649 -0.072722 -5.225865 0.000001 -0.000002 -0.000000 1.634531 6.414014 -8.617155 -1.061905 -0.411893 -26.251590 -0.455815 0.066365 -15.878038 0.000007 0.000001 -0.000000 -4.735809 0.301718 -25.339860 -9.115310 1.803040 -33.711884 3.833914 0.767648 13.845957 -0.000004 -0.000003 -0.000001 1.366478 8.740157 9.959219 0.000000 0.000000 0.000000 -1.792369 -20.808386 51.986960 -9.545164 40.041335 17.978265 4.568322 9.745594 4.644048 3.813807 -17.043277 6.740834 0.181598 -40.186996 -17.022206 3.562217 14.748204 8.652811 -0.000000 -0.000001 0.000001 1.818295 -19.362850 4.890679 6.327399 -0.283020 17.229962 0.862185 0.064294 2.396428 0.000001 -0.000001 -0.000000 -1.103465 0.091584 12.609720 -1.484390 0.540300 30.951859 -0.262375 0.003294 7.422939 -0.000000 0.000003 0.000003 -4.381882 10.605644 17.360340 -12.901725 -2.934041 39.495347 0.144670 -0.044672 -0.418783 -0.000003 -0.000002 0.000002 -40.015012 -0.162315 19.530359 41.404696 -15.712012 0.322664 -0.045416 1.162830 -15.159250 -2.385073 -3.108331 0.875846 -0.000001 -0.000007 -0.000000 6.634168 -13.788655 -22.425145 35.574473 -3.875004 0.242175 -32.004463 -11.502389 25.642666 -1.555792 -0.219013 0.330485 -0.000000 0.000001 -0.000000 
0.920713 30.205788 -0.883427 -3.479733 -43.235839 -2.221216 5.914195 3.882248 -1.423878 11.935587 7.898668 -2.958468 0.000000 0.000000 0.000000 11.935587 7.898648 -2.958465 -5.669655 -0.289493 0.470748 -5.266489 21.333573 -1.343458 -0.000001 0.000000 -0.000000 1.309648 0.214984 -8.483203 0.000000 0.000000 0.000000 -17.067751 2.149808 -55.591128 2.397076 -47.689136 -4.238610 12.825291 2.317826 21.398626 19.805278 15.753481 -9.857916 -2.767134 20.066085 11.244668 -1.210719 -15.365552 -7.913963 0.000000 -0.000003 -0.000000 1.762219 16.157921 -5.968034 6.103013 0.519436 -13.279439 2.389652 -0.072722 -5.225863 0.000002 0.000001 -0.000001 1.511983 5.989558 -8.744053 -1.045709 -0.397807 -25.947245 -0.455814 0.066360 -15.878042 0.000002 0.000001 0.000003 -4.787070 -0.049596 -24.958858 -8.967573 1.707934 -33.093824 3.833911 0.767652 13.845957 -0.000002 0.000001 0.000000 1.342460 8.063065 9.933575 0.000000 0.000000 0.000000 -2.292842 -19.606113 50.423769 -8.720879 42.274237 17.633686 4.485813 8.911134 4.366475 3.296419 -16.369532 6.480191 -0.078092 -39.379818 -16.938369 3.562215 14.748207 8.652811 0.000003 -0.000001 0.000001 1.822732 -19.063732 5.204477 6.365764 -0.258380 17.353591 0.862183 0.064294 2.396429 0.000000 -0.000003 -0.000000 -1.142649 0.188422 12.723382 -1.435749 0.515782 30.164786 -0.262377 0.003295 7.422938 -0.000000 0.000002 -0.000002 -4.327412 10.537474 17.276654 -12.639467 -2.751588 38.577428 0.144673 -0.044673 -0.418782 0.000002 -0.000001 0.000002 -41.649100 -0.842173 19.158406 42.515008 -15.056793 0.556251 -0.227746 1.233697 -15.300795 -2.029750 -2.962258 0.146341 -0.000000 -0.000005 -0.000000 4.487648 -12.897895 -22.933129 37.671703 -3.763563 0.393411 -32.700794 -11.767116 25.734724 -1.460858 -0.199701 0.313509 -0.000000 0.000001 0.000000 
1.096952 29.974361 -0.907100 -1.566994 -43.744326 -0.970420 5.988030 3.636559 -1.369678 12.075091 7.433980 -2.865508 0.000000 0.000000 0.000000 12.075089 7.433979 -2.865513 -6.660603 0.299511 0.536923 -5.325497 21.876567 -2.274110 -0.000000 0.000000 -0.000000 1.252091 0.485958 -8.929264 0.000000 0.000000 0.000000 -16.573054 3.368088 -54.747876 1.233797 -50.643322 -3.387632 12.575504 2.122517 20.849323 18.362304 14.565783 -9.919785 -2.766362 20.178891 11.288423 -1.210722 -15.365550 -7.913963 -0.000000 -0.000001 -0.000001 1.901734 16.294258 -6.551506 6.221360 0.461249 -13.565883 2.389646 -0.072722 -5.225857 -0.000002 0.000004 -0.000004 1.354464 5.440404 -8.915460 -1.025205 -0.379740 -25.559838 -0.455820 0.066361 -15.878040 0.000002 0.000003 0.000001 -4.841424 -0.505158 -24.473208 -8.776414 1.588215 -32.300364 3.833908 0.767648 13.845959 -0.000001 -0.000004 0.000002 1.316241 7.216594 9.860661 0.000000 0.000000 0.000000 -2.688841 -18.590134 48.725364 -7.863236 45.706550 16.918122 4.804420 8.105279 3.693936 2.636218 -15.479439 6.169227 -0.418749 -38.331384 -16.828555 3.562219 14.748199 8.652811 -0.000000 -0.000003 0.000001 1.822637 -18.671785 5.613242 6.415203 -0.226307 17.512996 0.862184 0.064292 2.396430 0.000000 -0.000001 -0.000001 -1.193330 0.313773 12.873738 -1.373700 0.483328 29.151271 -0.262377 0.003294 7.422935 -0.000001 0.000001 -0.000002 -4.257263 10.446006 17.172209 -12.297362 -2.522493 37.393202 0.144671 -0.044670 -0.418776 -0.000000 -0.000004 0.000001 -44.296478 -1.455436 19.178153 44.486907 -14.619304 0.485895 -0.685565 1.324222 -15.176750 -1.746460 -2.795030 -0.395512 -0.000000 -0.000004 0.000000 1.111710 -11.652535 -23.775605 40.966973 -3.158093 0.657606 -33.874480 -12.097703 25.694330 -1.437141 -0.281990 0.291264 -0.000000 -0.000001 -0.000000 
1.299354 29.622778 -0.924625 1.045684 -44.563907 0.686462 6.061385 3.425698 -1.308045 12.215213 7.046535 -2.765556 0.000000 0.000000 0.000000 12.215197 7.046556 -2.765562 -7.834802 1.034755 0.555438 -5.739558 22.596067 -3.402416 0.000002 0.000000 0.000000 1.185577 0.725983 -9.548669 0.000000 0.000000 0.000000 -15.950491 4.862637 -54.010721 -0.280470 -54.310440 -2.610932 12.396033 1.361817 20.988678 16.664089 13.085071 -10.015885 -2.764621 20.316770 11.342099 -1.210717 -15.365549 -7.913958 -0.000001 -0.000000 -0.000003 2.070542 16.460416 -7.259288 6.365320 0.392506 -13.912243 2.389651 -0.072722 -5.225862 0.000004 -0.000001 0.000003 1.165508 4.774077 -9.124241 -1.000257 -0.357659 -25.088933 -0.455817 0.066362 -15.878037 0.000002 0.000000 0.000001 -4.890263 -1.062387 -23.883846 -8.542175 1.446642 -31.336624 3.833915 0.767652 13.845958 -0.000005 -0.000003 0.000004 1.282825 6.222001 9.757940 0.000000 0.000000 0.000000 -2.866249 -17.894184 47.013073 -7.000584 50.348524 15.890249 5.556315 7.679929 2.183366 1.869040 -14.393049 5.817874 -0.828013 -37.061822 -16.687132 3.562219 14.748202 8.652806 0.000001 -0.000001 0.000000 1.816454 -18.199012 6.107540 6.474672 -0.187623 17.704771 0.862185 0.064292 2.396430 -0.000000 -0.000003 0.000000 -1.253962 0.465929 13.055271 -1.299139 0.442404 27.921463 -0.262377 0.003294 7.422939 -0.000000 0.000002 0.000002 -4.172419 10.336147 17.045756 -11.876032 -2.254276 35.955120 0.144669 -0.044670 -0.418782 -0.000001 -0.000006 -0.000001 -48.050490 -1.944223 19.858048 47.461591 -14.612150 -0.053026 -1.546667 1.428209 -14.611291 -1.531838 -2.575726 -0.648852 -0.000000 -0.000004 0.000000 -3.439085 -10.106789 -24.864300 45.223420 -1.885272 1.070850 -35.444481 -12.436292 25.374318 -1.435160 -0.408089 0.264638 -0.000000 -0.000001 -0.000000 
